<svg xmlns="http://www.w3.org/2000/svg" width="400" height="70" viewBox="0 0 400 70" fill="none">
    <script xmlns="" />
    <path
        d="M 405.8 45.4 C 404.5 45.4 403.5 44.4 403.5 43.1 C 403.5 41.9 404.5 40.9 405.8 40.9 C 407 40.9 408 41.9 408 43.1 C 408 44.4 407 45.4 405.8 45.4 Z M 405.8 41.3 C 404.8 41.3 403.9 42.2 403.9 43.1 C 403.9 44.1 404.8 45 405.8 45 C 406.7 45 407.6 44.1 407.6 43.1 C 407.6 42.2 406.7 41.3 405.8 41.3 Z M 406.9 44.3 H 406.4 L 405.9 43.5 H 405.3 V 44.3 H 404.9 V 41.9 H 406 C 406.6 41.9 406.9 42.2 406.9 42.7 C 406.9 43 406.7 43.3 406.4 43.4 L 406.9 44.3 Z M 406 43 C 406.2 43 406.4 42.9 406.4 42.7 C 406.4 42.4 406.2 42.3 406 42.3 H 405.3 V 43 H 406 Z M 171.7 40.7 H 177.5 V 56.3 H 187.5 V 61.3 H 171.7 V 40.7 Z M 193.4 51.1 V 51 C 193.4 45.1 198.2 40.3 204.6 40.3 C 210.9 40.3 215.6 45 215.6 51 V 51 C 215.6 57 210.9 61.8 204.5 61.8 C 198.2 61.7 193.4 57 193.4 51.1 Z M 209.8 51.1 V 51 C 209.8 48 207.7 45.5 204.5 45.5 C 201.4 45.5 199.3 48 199.3 51 V 51.1 C 199.3 54 201.4 56.6 204.6 56.6 C 207.7 56.6 209.8 54 209.8 51.1 V 51.1 Z M 222.7 52.3 V 40.7 H 228.5 V 52.2 C 228.5 55.2 230 56.6 232.3 56.6 C 234.6 56.6 236.1 55.2 236.1 52.3 V 40.7 H 241.9 V 52.1 C 241.9 58.8 238.1 61.7 232.2 61.7 C 226.4 61.7 222.7 58.8 222.7 52.3 V 52.3 Z M 250.7 40.7 H 258.6 C 266 40.7 270.3 44.9 270.3 50.9 V 51 C 270.3 56.9 266 61.3 258.5 61.3 H 250.7 L 250.7 40.7 V 40.7 Z M 258.7 56.3 C 262.1 56.3 264.4 54.4 264.4 51 V 51 C 264.4 47.6 262.1 45.7 258.7 45.7 H 256.4 V 56.2 L 258.7 56.3 V 56.3 Z M 278.6 40.7 H 295.1 V 45.7 H 284.3 V 49.2 H 294.1 V 54 H 284.3 V 61.3 H 278.6 V 40.7 Z M 303.1 40.7 H 308.8 V 56.3 H 318.8 V 61.3 H 303.1 V 40.7 Z M 333.8 40.5 H 339.3 L 348.1 61.3 H 341.9 L 340.4 57.7 H 332.5 L 331 61.3 H 325 L 333.8 40.5 V 40.5 Z M 338.8 53.2 L 336.5 47.3 L 334.2 53.2 H 338.8 Z M 355.5 40.7 H 365.2 C 368.4 40.7 370.6 41.5 372 42.9 C 373.2 44.1 373.8 45.7 373.8 47.8 V 47.8 C 373.8 51 372.1 53.1 369.6 54.2 L 374.5 61.4 H 367.9 L 363.7 55.1 H 361.2 V 61.4 H 355.5 L 355.5 40.7 V 40.7 Z M 365 50.6 C 366.9 50.6 368 49.7 368 48.2 V 48.1 C 368 46.5 366.8 45.7 364.9 45.7 H 361.2 V 50.6 H 365 V 50.6 Z M 382 40.7 H 398.6 V 45.6 H 387.7 V 48.7 H 397.6 V 53.2 H 387.7 V 56.5 H 398.8 V 61.3 H 382 V 40.7 Z M 159.2 53.5 C 158.4 55.3 156.7 56.6 154.5 56.6 C 151.4 56.6 149.3 54 149.3 51 V 51 C 149.3 48 151.3 45.4 154.5 45.4 C 156.8 45.4 158.6 46.9 159.4 48.9 H 165.4 C 164.5 43.9 160.1 40.3 154.5 40.3 C 148.1 40.3 143.4 45.1 143.4 51 V 51.1 C 143.4 57 148.1 61.8 154.4 61.8 C 159.9 61.8 164.2 58.2 165.3 53.5 L 159.2 53.5 V 53.5 Z M 123.2 38.7 L 107.4 29.7 L 104.7 28.5 L 40 29 V 61.7 L 123.2 61.8 V 38.7 Z"
        fill="white" />
    <path
        d="M 94.4 58.8 C 95.2 56.1 94.9 53.7 93.6 51.9 C 92.4 50.2 90.4 49.3 88.1 49.1 L 42.7 48.6 C 42.4 48.6 42.2 48.4 42 48.2 C 41.9 48 41.8 47.7 41.9 47.4 C 42.1 46.9 42.5 46.6 43 46.6 L 88.7 46 C 94.1 45.7 100 41.3 102.1 36 L 104.7 29.2 C 104.8 28.9 104.8 28.6 104.8 28.3 C 101.8 14.9 89.9 5 75.7 5 C 62.6 5 51.5 13.5 47.5 25.2 C 44.9 23.3 41.7 22.3 38.1 22.6 C 31.8 23.2 26.8 28.3 26.2 34.6 C 26 36.2 26.1 37.8 26.5 39.2 C 16.2 39.5 8 47.9 8 58.3 C 8 59.2 8.1 60.1 8.2 61 C 8.3 61.5 8.6 61.8 9.1 61.8 H 92.7 C 93.2 61.8 93.6 61.5 93.8 61 L 94.4 58.8 V 58.8 Z"
        fill="#f38020" />
    <path
        d="M 108.9 29.6 C 108.5 29.6 108 29.6 107.6 29.7 C 107.3 29.7 107.1 29.9 106.9 30.2 L 105.2 36.3 C 104.4 39 104.7 41.4 106 43.2 C 107.2 44.9 109.2 45.8 111.5 45.9 L 121.2 46.5 C 121.5 46.5 121.7 46.7 121.9 46.9 C 122 47.1 122.1 47.5 122 47.7 C 121.9 48.2 121.4 48.5 120.9 48.5 L 110.9 49.1 C 105.4 49.4 99.6 53.8 97.5 59.1 L 96.8 61 C 96.6 61.4 96.9 61.7 97.3 61.7 H 131.8 C 132.2 61.7 132.6 61.5 132.7 61.1 C 133.3 58.9 133.6 56.7 133.6 54.4 C 133.6 40.7 122.6 29.6 108.9 29.6"
        fill="#faae40" />
</svg>