<svg xmlns="http://www.w3.org/2000/svg" width="350" height="100" viewBox="0 0 350 100" fill="none">
    <script xmlns="" />
    <defs>
        <radialGradient cx="0" cy="0" r="1" gradientUnits="userSpaceOnUse"
            gradientTransform="translate(87.1867 47.7597) rotate(90) scale(83.7943 96.7436)" id="paint0_radial_1_199">
            <stop stop-color="#20c6b7" />
            <stop offset="1" stop-color="#4d9abf" />
        </radialGradient>
    </defs>
    <g>
        <path clip-rule="evenodd" fill="white" fill-rule="evenodd"
            d="M 123.5 32.6 L 123.7 37.4 C 126.8 33.7 130.8 31.8 135.8 31.8 C 144.5 31.8 148.9 36.8 149 46.7 V 74.2 H 139.7 V 47.2 C 139.7 44.6 139.1 42.6 138 41.4 C 136.9 40.1 135 39.5 132.4 39.5 C 128.7 39.5 125.9 41.2 124 44.6 V 74.2 H 114.7 V 32.6 H 123.5 H 123.5 Z M 176.8 75 C 170.9 75 166.1 73.1 162.4 69.4 C 158.8 65.6 156.9 60.7 156.9 54.5 V 53.3 C 156.9 49.2 157.7 45.4 159.3 42.2 C 160.9 38.9 163.2 36.4 166.1 34.5 C 169 32.7 172.2 31.8 175.7 31.8 C 181.4 31.8 185.8 33.6 188.8 37.2 C 191.9 40.9 193.5 46 193.5 52.6 V 56.3 H 166.3 C 166.6 59.8 167.8 62.5 169.8 64.5 C 171.8 66.5 174.3 67.5 177.4 67.5 C 181.6 67.5 185.1 65.8 187.8 62.3 L 192.8 67.1 C 191.2 69.6 188.9 71.5 186.2 72.9 C 183.4 74.3 180.3 75 176.8 75 H 176.8 Z M 175.7 39.3 C 173.1 39.3 171.1 40.2 169.5 42 C 167.9 43.8 166.9 46.3 166.5 49.5 H 184.3 V 48.8 C 184.1 45.7 183.2 43.3 181.8 41.7 C 180.3 40.1 178.3 39.3 175.7 39.3 V 39.3 Z M 212.4 22.5 V 32.6 H 219.7 V 39.5 H 212.4 V 62.7 C 212.4 64.3 212.7 65.5 213.3 66.2 C 213.9 66.9 215.1 67.2 216.7 67.2 C 217.8 67.2 218.9 67.1 219.9 66.8 V 74.1 C 217.8 74.7 215.8 75 213.8 75 C 206.6 75 203.1 71 203.1 63.1 V 39.5 H 196.2 V 32.6 H 203.1 V 22.5 H 212.4 L 212.4 22.5 Z M 236.7 74.2 H 227.4 V 15.1 H 236.7 V 74.2 Z M 256.8 74.2 H 247.5 V 32.6 H 256.8 V 74.2 Z M 246.9 21.8 C 246.9 20.3 247.4 19.1 248.3 18.2 C 249.2 17.3 250.5 16.8 252.2 16.8 C 253.9 16.8 255.2 17.3 256.1 18.2 C 257 19.1 257.5 20.3 257.5 21.8 C 257.5 23.2 257 24.4 256.1 25.3 C 255.2 26.2 253.9 26.7 252.2 26.7 C 250.5 26.7 249.2 26.2 248.3 25.3 C 247.4 24.4 246.9 23.2 246.9 21.8 V 21.8 Z M 270.2 74.2 V 39.5 H 263.9 V 32.6 H 270.2 V 28.8 C 270.2 24.2 271.5 20.6 274.1 18.1 C 276.6 15.6 280.2 14.3 284.8 14.3 C 286.5 14.3 288.2 14.5 290 15 L 289.8 22.3 C 288.6 22.1 287.4 22 286.2 22 C 281.8 22 279.6 24.3 279.6 28.9 V 32.6 H 288 V 39.5 H 279.6 V 74.2 H 270.2 V 74.2 Z M 309.3 60.8 L 317.8 32.6 H 327.7 L 311.2 80.5 C 308.7 87.5 304.4 91 298.3 91 C 297 91 295.5 90.8 293.8 90.3 V 83.1 L 295.6 83.2 C 298 83.2 299.7 82.8 300.9 81.9 C 302.1 81 303 79.6 303.7 77.6 L 305.1 74 L 290.5 32.6 H 300.6 L 309.3 60.8 V 60.8 Z" />
        <path fill="url(#paint0_radial_1_199)"
            d="M 67.7 35.1 L 67.7 35.1 C 67.7 35.1 67.7 35.1 67.6 35.1 C 67.6 35 67.6 35 67.6 35 C 67.6 34.9 67.6 34.9 67.6 34.9 L 69.3 24.5 L 77.2 32.5 L 69 36 C 68.9 36 68.9 36 68.9 36 H 68.9 C 68.8 36 68.8 36 68.8 35.9 C 68.5 35.6 68.1 35.3 67.7 35.1 V 35.1 Z M 79.2 34.5 L 87.7 43 C 89.5 44.7 90.4 45.6 90.7 46.6 C 90.7 46.8 90.8 46.9 90.8 47.1 L 70.5 38.5 C 70.5 38.5 70.5 38.5 70.5 38.5 C 70.4 38.5 70.3 38.4 70.3 38.3 C 70.3 38.2 70.4 38.2 70.5 38.2 L 70.5 38.2 L 79.2 34.5 V 34.5 Z M 90.4 49.8 C 90 50.6 89.2 51.5 87.7 52.9 L 78.2 62.5 L 65.8 59.9 L 65.7 59.9 C 65.6 59.9 65.5 59.9 65.5 59.8 C 65.5 59.2 65.3 58.8 65.1 58.3 C 64.8 57.9 64.5 57.5 64.1 57.1 C 64 57.1 64 57 64 56.9 C 64 56.9 64 56.9 64 56.9 L 66.4 42.6 L 66.4 42.6 C 66.4 42.5 66.4 42.4 66.5 42.4 C 67 42.3 67.5 42.1 67.9 41.9 C 68.4 41.6 68.7 41.3 69.1 40.9 C 69.1 40.9 69.1 40.9 69.1 40.8 C 69.2 40.8 69.3 40.8 69.3 40.9 L 90.4 49.8 H 90.4 Z M 76 64.7 L 60.2 80.4 L 62.9 63.9 L 62.9 63.8 C 62.9 63.8 62.9 63.8 62.9 63.8 C 63 63.7 63 63.7 63.1 63.7 L 63.1 63.7 C 63.7 63.4 64.2 63 64.6 62.5 C 64.7 62.5 64.7 62.4 64.8 62.4 C 64.8 62.4 64.9 62.4 64.9 62.4 L 76 64.7 L 76 64.7 Z M 56.9 83.7 L 55.1 85.5 L 35.5 57.2 C 35.5 57.2 35.5 57.2 35.5 57.2 C 35.5 57.1 35.5 57.1 35.5 57 C 35.5 57 35.5 57 35.5 56.9 L 35.5 56.9 C 35.6 56.8 35.6 56.7 35.7 56.6 L 35.7 56.6 L 35.7 56.6 C 35.8 56.5 35.8 56.5 35.9 56.4 C 35.9 56.4 36 56.4 36 56.4 L 57.7 60.9 C 57.8 60.9 57.8 60.9 57.9 61 C 57.9 61 57.9 61 57.9 61.1 C 58.1 61.6 58.4 62.2 58.8 62.6 C 59.1 63.1 59.6 63.4 60.2 63.6 C 60.2 63.7 60.2 63.7 60.2 63.8 C 60.2 63.8 60.2 63.9 60.2 63.9 C 59.9 65.6 57.5 79.9 56.9 83.7 Z M 53.2 87.4 C 51.9 88.7 51.1 89.4 50.3 89.7 C 49.4 90 48.5 90 47.6 89.7 C 46.6 89.4 45.7 88.5 44 86.7 L 24.3 67 L 29.4 59.1 C 29.4 59 29.5 59 29.5 59 C 29.6 58.9 29.6 58.9 29.7 59 C 30.9 59.3 32.2 59.3 33.3 58.8 C 33.4 58.8 33.4 58.7 33.5 58.8 C 33.5 58.8 33.5 58.8 33.5 58.9 L 53.2 87.4 V 87.4 Z M 22.4 65.1 L 17.9 60.6 L 26.8 56.8 C 26.8 56.8 26.8 56.8 26.9 56.8 C 26.9 56.8 27 56.9 27 57 C 27.1 57.1 27.2 57.2 27.3 57.4 L 27.3 57.4 C 27.4 57.4 27.3 57.5 27.3 57.5 L 22.4 65.1 H 22.4 Z M 15.9 58.6 L 10.2 52.9 C 9.2 52 8.5 51.2 8 50.6 L 25.4 54.2 C 25.4 54.2 25.4 54.3 25.4 54.3 C 25.5 54.3 25.7 54.3 25.7 54.4 C 25.7 54.5 25.5 54.6 25.4 54.6 L 25.4 54.6 L 15.9 58.6 Z M 7 47.7 C 7 47.3 7.1 47 7.2 46.6 C 7.5 45.6 8.4 44.7 10.2 43 L 17.5 35.7 C 20.8 40.5 24.2 45.4 27.6 50.3 C 27.7 50.4 27.7 50.4 27.6 50.5 C 27.3 50.9 27 51.3 26.8 51.7 C 26.8 51.7 26.7 51.8 26.7 51.8 C 26.6 51.8 26.6 51.8 26.6 51.8 H 26.6 L 7 47.7 V 47.7 Z M 19.4 33.7 L 29.2 23.9 C 30.2 24.3 33.5 25.7 36.5 27 C 38.8 27.9 40.9 28.8 41.5 29.1 C 41.6 29.1 41.7 29.1 41.7 29.2 C 41.7 29.2 41.7 29.3 41.7 29.3 C 41.5 30 41.6 30.8 41.8 31.5 C 42 32.2 42.3 32.8 42.8 33.3 C 42.9 33.4 42.8 33.5 42.8 33.6 L 42.8 33.6 L 32.8 49.1 C 32.8 49.1 32.7 49.2 32.7 49.2 C 32.6 49.2 32.6 49.2 32.5 49.2 C 32.1 49.1 31.7 49 31.3 49 C 30.9 49 30.6 49.1 30.2 49.2 H 30.2 C 30.1 49.2 30.1 49.2 30 49.2 C 30 49.1 30 49.1 29.9 49 L 19.4 33.7 H 19.4 Z M 31.2 21.9 L 44 9.2 C 45.7 7.4 46.6 6.5 47.6 6.2 C 48.5 5.9 49.4 5.9 50.3 6.2 C 51.3 6.5 52.2 7.4 53.9 9.2 L 56.7 11.9 L 47.6 25.9 C 47.6 26 47.6 26 47.5 26 C 47.5 26.1 47.4 26.1 47.3 26 C 46.6 25.8 45.9 25.8 45.1 25.9 C 44.4 26.1 43.7 26.4 43.1 26.8 C 43.1 26.9 43 26.9 42.9 26.8 C 41.7 26.3 32.6 22.4 31.2 21.9 V 21.9 Z M 58.6 13.8 L 67 22.2 L 64.9 34.7 V 34.7 C 64.9 34.7 64.9 34.8 64.9 34.8 C 64.9 34.8 64.9 34.8 64.8 34.8 C 64.4 35 64 35.2 63.6 35.4 C 63.6 35.5 63.6 35.5 63.6 35.5 C 63.5 35.5 63.5 35.5 63.5 35.5 C 63.4 35.5 63.4 35.5 63.4 35.5 L 50.7 30.1 L 50.6 30.1 C 50.6 30.1 50.5 30 50.5 29.9 C 50.4 29.2 50.2 28.6 49.8 27.9 C 49.7 27.8 49.6 27.7 49.7 27.6 L 58.6 13.8 V 13.8 Z M 50 32.7 L 61.9 37.7 C 62 37.8 62.1 37.8 62.1 37.9 C 62.1 37.9 62.1 37.9 62.1 38 C 62.1 38.2 62 38.4 62 38.6 V 38.9 C 62 39 61.9 39 61.9 39 L 61.8 39 C 59.9 39.9 35.3 50.4 35.3 50.4 C 35.2 50.4 35.2 50.4 35.2 50.3 C 35.1 50.3 35.2 50.2 35.2 50.1 C 35.2 50.1 35.2 50.1 35.2 50 L 45 34.9 L 45.1 34.8 C 45.1 34.7 45.2 34.6 45.3 34.6 L 45.4 34.7 C 45.6 34.7 45.8 34.7 46 34.7 C 47.5 34.7 48.9 34 49.7 32.8 C 49.7 32.7 49.8 32.7 49.8 32.7 C 49.8 32.6 49.9 32.6 50 32.7 V 32.7 Z M 36.3 52.8 L 63.2 41.3 C 63.2 41.3 63.2 41.3 63.3 41.3 C 63.4 41.5 63.5 41.6 63.7 41.7 L 63.7 41.7 C 63.8 41.8 63.8 41.8 63.8 41.8 C 63.8 41.9 63.8 41.9 63.8 41.9 L 61.5 56 L 61.5 56.1 C 61.5 56.2 61.5 56.3 61.4 56.3 C 60.8 56.4 60.2 56.6 59.7 56.9 C 59.1 57.2 58.7 57.7 58.4 58.2 L 58.4 58.2 C 58.3 58.2 58.3 58.3 58.3 58.3 C 58.2 58.3 58.2 58.3 58.1 58.3 L 36.7 53.9 C 36.7 53.9 36.4 52.8 36.3 52.8 V 52.8 Z" />
    </g>
</svg>