<?xml version="1.0" encoding="UTF-8" standalone="no"?>
<!DOCTYPE svg PUBLIC "-//W3C//DTD SVG 1.1//EN" "http://www.w3.org/Graphics/SVG/1.1/DTD/svg11.dtd">
<svg width="100%" height="100%" viewBox="0 0 120 120" version="1.1" xmlns="http://www.w3.org/2000/svg"
    xmlns:xlink="http://www.w3.org/1999/xlink" xml:space="preserve" xmlns:serif="http://www.serif.com/"
    style="fill-rule:evenodd;clip-rule:evenodd;stroke-linejoin:round;stroke-miterlimit:2;">
    <g transform="matrix(0.354715,0,0,0.354715,-13.089,-9.5773)">
        <g>
            <path
                d="M101.5,81.9C97.7,85 90.4,83 85.1,77.2C82.9,79.4 81.3,81.4 79.3,83.6C85.1,88.3 87.7,95.8 84.6,99.3C81.5,103.1 74,102.4 68.2,97.7C66.6,99.9 65.1,102.4 63.5,104.6C69.9,108.8 73,115.2 70.8,119.5C68.6,123.8 61.3,124.2 54.4,120.6C53.3,123.3 51.7,125.9 50.6,127.9C57.5,131 61.2,136.3 59.5,141.2C57.9,145.4 51.1,147 44.2,145C43.1,147.7 42.6,150.3 42,153C48.9,155.2 53.5,159.9 52.6,164.1C51.5,168.8 45.3,171.4 38.4,170.5C38,173.2 38,176.3 37.3,178.9C44.2,180 49.5,183.6 49.5,188.4C49.5,193.2 43.7,196.4 36.9,196.8L36.9,205.2C43.8,205.2 49.5,208.3 50.2,212.5C50.6,216.7 46,221.4 39.1,222.5C39.5,225.2 40.2,228.3 40.7,230.9C47.6,229.8 53.3,232 54.4,236.2C55.5,240.4 51.7,245.7 45.5,247.7C46.6,250.4 47.1,253 48.2,255.7C54.6,253.5 60.8,255.3 62.4,258.8C64,263 61.3,268.3 55.1,272.1C56.2,274.8 57.8,276.8 59.3,279.4C65.1,276.3 71.5,276.7 73.5,280.5C76.2,284.3 73.5,290 68.8,294.2C70.4,296.4 71.9,298.9 74.1,301.1C79.4,297.3 85.6,296.9 88.3,300C91.4,303.1 89.9,309.5 85.6,314.2C87.8,316.4 89.8,318.4 92,320C96.7,315.3 102.6,313.6 106.2,316.2C109.7,318.9 109.3,325.1 105.8,331.1C108,332.7 110.5,334.2 112.7,335.8C116.9,330.5 122.2,327.8 126,330C129.8,332.2 130.7,338.4 127.6,344.9C130.3,346.5 132.9,347.6 134.9,348.7C138,342.9 143.3,339.2 147.5,340.7C151.7,342.3 153.3,348.7 151.7,354.9C154.4,356 157,356.5 159.7,357.6C161.9,351.2 166.6,347 170.8,347.6C175,348.7 177.7,354.5 177.2,361.3C179.9,361.7 183,362.4 185.6,362.4C186.7,355.5 190.3,350.2 195.1,350.9C199.8,350.9 203.1,356.7 203.5,364.2L211.9,364.2C211.9,357.3 215,351.6 219.2,350.9C223.9,350.5 228.1,355.6 229.8,362.4C232.5,362 235.6,361.3 238.2,360.8C236.6,353.9 239.3,347.5 243.5,345.9C248.2,344.8 253.5,349 255.7,356.5C258.4,355.4 261,354.9 263.7,353.8C261,346.9 262.1,340.1 266.4,338.1C270.6,336.1 277,340.3 280.1,347C282.8,345.9 285.4,344.3 287.4,343.2C283.6,336.8 283.6,329.5 287.4,326.8C291.6,324.1 298.5,327.2 302.7,333.7C304.9,332.1 307.4,330.6 309.6,328.4C304.3,322.6 303.2,315.1 306.9,312C310.7,308.9 318,310.9 323.3,316.7L329.1,310.9C322.7,305.6 320.7,298.7 323.3,295.2C326.4,291.4 333.9,292.1 340.1,297.4L340.5,297.8C342.1,295.6 344.3,293.1 345.8,290.9C338.9,286.7 335.2,280.3 337.4,275.6C340.1,271.4 347.4,270.9 354.2,275.2L354.6,275.6C356.2,272.9 357.3,270.3 358.4,267.6L358,267.6C350.7,264.9 345.8,258.7 347.4,253.9C349,249 356.9,247.5 364.2,250.8C364.6,250.8 364.6,251.2 365.3,251.2C366.4,248.5 367.5,245.4 368,242.8L366.9,242.8C358.9,241.2 353.2,235.9 354.3,231.3C355.4,226.6 362.7,224 370.7,225.5C371.1,225.5 371.8,225.5 372.3,225.9C372.7,222.8 373.4,220.1 373.9,217L372.3,217C364.3,216.6 358.1,212.3 358.1,207.5C358.1,202.7 365,198.6 373,199.1L375.2,199.1L375.2,190.2L373.6,190.2C365.6,191.3 358.7,187.5 358.3,182.9C357.9,178.2 363.6,173.4 372,172.3L374.2,172.3C373.8,169.2 373.1,166.5 372.6,163.4C372.2,163.4 371.5,163.8 370.4,163.8C362.4,166 355.1,163.8 354,159.1C352.4,154.4 357.8,148.5 365.5,146.5C365.9,146.5 367.1,146.1 367.7,146.1C366.6,143 365.5,140.3 364.6,137.7C364.2,138.1 363.5,138.1 362.4,138.8C355.1,141.9 347.5,141 345.6,136.6C343.4,131.9 347.8,125.5 355.1,122.4C356.2,122 356.7,122 357.8,121.3C356.2,118.6 355.1,116 353.6,113.3C353.2,113.7 352.5,114.4 351.4,114.9C344.5,119.1 337.2,119.6 333.9,115.3C331.2,111.1 334.3,104.2 341.2,99.6C341.6,99.2 342.8,98.5 343.4,98.5C341.8,95.8 339.6,93.8 337.6,91.2L336,92.8C330.2,98.1 322.3,99.7 319.2,95.9C316.1,92.1 318.1,84.8 323.9,79.5C324.3,79.1 325.5,78.4 326.1,77.9C323.9,75.7 321.9,73.7 319.2,71.5C318.8,71.9 318.1,72.6 317.6,73.7C312.3,80.1 305.4,82.6 301.2,79.5C297.4,76.4 298.1,68.9 303.4,62.7C303.8,62.3 304.5,61.1 305,60.5C302.3,58.9 300.3,56.7 297.7,55.2C297.3,55.6 297.3,56.8 296.6,57.4C292.4,64.3 286,68 281.3,65.8C277.1,63.1 276.6,55.8 280.9,49C281.3,48.6 282,47.4 282.5,46.8C279.8,45.2 277.2,44.1 274.1,42.6C274.1,43 273.7,44.2 273.7,44.8C271,52.1 264.8,57 260,55.4C255.1,53.8 253.6,45.9 256.9,38.6C257.3,38.2 257.3,37 258,36.4C255.3,35.3 252.2,34.8 249.1,33.7C249.1,34.1 249.1,34.8 248.7,35.9C247.1,43.9 241.8,49.6 237.2,48.5C232.5,47.4 229.9,40.1 231.4,32.1C231.4,31.7 231.8,30.5 231.8,29.9C228.7,29.5 226,28.8 222.9,28.8L222.9,30.4C222.5,38.4 218.2,44.6 213.4,44.6C208.7,44.6 204.5,37.7 205,29.7L205,28.1L196.1,28.1L196.1,29.7C197.2,37.7 193.4,44.6 188.8,45C184.1,45.4 179.3,39.7 178.2,31.3L178.2,29.7C175.5,30.1 172.4,30.8 169.8,31.3C169.8,31.7 169.8,31.7 170.2,32.4C172.4,40.4 170.2,47.7 165.5,48.8C160.8,50.4 154.9,45 152.9,37.3L152.9,36.2C150.2,37.3 147.6,38.4 144.5,39.3C144.5,39.3 144.5,39.7 144.9,39.7C148,47 147.1,54.6 142.7,56.5C138,58.7 131.6,54.3 128.5,47L128.5,46.6C125.8,48.2 123.2,49.3 121.2,50.8C125.4,57.7 125.9,65 121.6,68.3C117.4,71 110.5,67.9 105.9,61C103.7,62.6 101.2,64.8 99,66.3C103.7,71.5 105.2,78.8 101.5,81.9ZM94.2,173.4C87.8,171.2 84.2,164.5 86.2,158.1C88.4,151.7 95.1,148.1 101.5,150.1C107.9,152.3 111.5,159 109.5,165.4C107.9,171.7 100.6,175.4 94.2,173.4ZM105.2,288.9C74.6,255.2 61.3,208.2 79.3,191.8C96.8,176.1 136.3,198.7 167.5,232.4C198.1,266.1 217.6,307.3 199.6,323.7C181.7,339.7 135.8,322.2 105.2,288.9ZM234,319.5C227.1,321.1 220.7,316.8 219.1,310C217.5,303.1 221.8,296.7 228.6,295.1C235.5,293.5 241.9,297.8 243.5,304.6C244.7,311.8 240.5,318 234,319.5ZM319.6,139.1C342.2,146.4 350.2,194.5 336.4,237.8C322.6,281.1 288.3,316.1 265.7,309.2C243.1,301.9 243.1,255.8 256.8,212.5C270.4,169.7 297,131.5 319.6,139.1ZM300.1,110.5C304.8,115.8 304.3,123.1 299,128C293.7,132.9 286.4,132.2 281.5,126.9C276.6,121.6 277.3,114.3 282.6,109.4C287.9,105.2 295.9,105.8 300.1,110.5ZM230.9,173.9C243.5,187.6 242.4,208.7 228.7,221.3C215,233.9 193.9,232.8 181.3,219.1C168.7,205.4 169.8,184.3 183.5,171.7C197,159 218.3,160.1 230.9,173.9ZM177.1,63C221.4,53.5 268.9,65.7 274.2,88.9C279.5,112.1 239.4,134.8 195.1,144.8C150.8,154.3 104.9,150.6 100,127.3C94.6,103.6 132.7,72.6 177.1,63Z"
                style="fill: #fff;" />
        </g>
    </g>
</svg>