<svg width="120" height="40" viewBox="0 0 120 40" fill="none" xmlns="http://www.w3.org/2000/svg">
                <g clip-path="url(#clip0)">
                <path d="M110.444 -0.000114141H9.56145C9.19372 -0.000114141 8.8304 -0.000114141 8.46364 0.00188586C8.15663 0.00388586 7.85207 0.00969586 7.54211 0.0145859C6.86874 0.0224877 6.19695 0.0815621 5.53259 0.191296C4.86915 0.303418 4.2265 0.514802 3.62637 0.818296C3.02697 1.12436 2.47929 1.52205 2.00318 1.99696C1.52457 2.47052 1.12561 3.0179 0.82165 3.61805C0.516847 4.21699 0.305496 4.85882 0.194896 5.52137C0.083244 6.18307 0.0231632 6.85241 0.0151925 7.52337C0.00588648 7.82997 0.00490373 8.13759 0 8.44423V31.5585C0.00490373 31.869 0.00588648 32.1698 0.0151925 32.4804C0.0231657 33.1513 0.0832464 33.8206 0.194896 34.4823C0.30519 35.1452 0.516554 35.7874 0.82165 36.3866C1.12548 36.9848 1.52449 37.53 2.00318 38.0009C2.47748 38.4779 3.02552 38.8759 3.62637 39.1796C4.2265 39.4839 4.86908 39.6965 5.53259 39.8104C6.19707 39.9192 6.86879 39.9783 7.54211 39.9872C7.85207 39.994 8.15663 39.9979 8.46364 39.9979C8.83039 39.9999 9.19374 39.9999 9.56145 39.9999H110.444C110.804 39.9999 111.171 39.9999 111.531 39.9979C111.837 39.9979 112.15 39.994 112.455 39.9872C113.128 39.9788 113.798 39.9197 114.461 39.8104C115.127 39.6957 115.772 39.4831 116.375 39.1796C116.975 38.8757 117.522 38.4777 117.996 38.0009C118.474 37.5281 118.874 36.9833 119.181 36.3866C119.484 35.787 119.693 35.1448 119.802 34.4823C119.914 33.8205 119.976 33.1514 119.988 32.4804C119.992 32.1698 119.992 31.869 119.992 31.5585C120 31.1952 120 30.8339 120 30.4647V9.53602C120 9.16981 120 8.80653 119.992 8.44423C119.992 8.13759 119.992 7.82997 119.988 7.52333C119.976 6.85231 119.914 6.18312 119.802 5.52133C119.693 4.85917 119.484 4.21739 119.181 3.61801C118.562 2.41508 117.581 1.43591 116.375 0.818206C115.772 0.515453 115.127 0.304126 114.461 0.191206C113.798 0.0809886 113.128 0.0218936 112.455 0.0144459C112.15 0.00956586 111.837 0.00370586 111.531 0.00175586C111.171 -0.000244141 110.804 -0.000244141 110.444 -0.000244141V-0.000114141Z" fill="black"/>
                <path d="M8.46856 39.125C8.16303 39.125 7.86487 39.1211 7.56174 39.1143C6.93376 39.1061 6.30725 39.0516 5.68735 38.9512C5.10932 38.8519 4.54937 38.6673 4.02596 38.4033C3.50735 38.1415 3.03433 37.7983 2.62504 37.3867C2.20981 36.98 1.86412 36.5082 1.60166 35.9902C1.33631 35.4688 1.15267 34.9099 1.05714 34.333C0.953972 33.7131 0.898156 33.0863 0.890169 32.458C0.883812 32.2471 0.875488 31.5449 0.875488 31.5449V8.44434C0.875488 8.44434 0.884353 7.75293 0.89022 7.5498C0.897867 6.92248 0.953358 6.29665 1.05621 5.67773C1.15192 5.09925 1.3357 4.53875 1.6012 4.01563C1.8627 3.49794 2.20647 3.02586 2.61919 2.61768C3.03145 2.20562 3.50597 1.8606 4.02547 1.59521C4.54767 1.33209 5.10657 1.14873 5.68343 1.05127C6.30537 0.949836 6.93405 0.894996 7.5642 0.88721L8.46906 0.875H111.526L112.442 0.8877C113.066 0.895099 113.689 0.94945 114.305 1.05029C114.888 1.14898 115.453 1.33362 115.981 1.59814C117.022 2.13299 117.869 2.97916 118.403 4.01807C118.664 4.53758 118.845 5.09351 118.939 5.66699C119.044 6.29099 119.102 6.92174 119.114 7.5542C119.117 7.8374 119.117 8.1416 119.117 8.44434C119.125 8.81934 119.125 9.17627 119.125 9.53613V30.4648C119.125 30.8281 119.125 31.1826 119.117 31.54C119.117 31.8652 119.117 32.1631 119.113 32.4697C119.101 33.0909 119.044 33.7104 118.941 34.3232C118.848 34.9043 118.665 35.4675 118.4 35.9932C118.136 36.5056 117.792 36.9733 117.381 37.3789C116.972 37.7927 116.498 38.1379 115.978 38.4014C115.451 38.6674 114.887 38.8527 114.305 38.9512C113.686 39.0522 113.059 39.1067 112.431 39.1143C112.137 39.1211 111.83 39.125 111.531 39.125L110.444 39.127L8.46856 39.125Z" fill="white"/>
                <path d="M25.0671 19.8894C25.0783 19.0215 25.3095 18.1705 25.7392 17.4155C26.1688 16.6606 26.783 16.0264 27.5245 15.5717C27.0535 14.9008 26.432 14.3487 25.7095 13.9592C24.987 13.5697 24.1834 13.3536 23.3625 13.328C21.6114 13.1447 19.9137 14.3729 19.0213 14.3729C18.1117 14.3729 16.7378 13.3462 15.2583 13.3765C14.3014 13.4074 13.3687 13.6849 12.5513 14.182C11.7339 14.6791 11.0595 15.3789 10.5939 16.2132C8.57716 19.6952 10.0815 24.8126 12.0134 27.6272C12.98 29.0055 14.1096 30.545 15.5878 30.4904C17.0342 30.4305 17.5745 29.5706 19.3204 29.5706C21.0502 29.5706 21.557 30.4904 23.0652 30.4557C24.6173 30.4305 25.5952 29.0713 26.5279 27.68C27.2224 26.698 27.7568 25.6126 28.1113 24.4641C27.2096 24.0838 26.4401 23.4472 25.8987 22.6337C25.3574 21.8202 25.0681 20.8658 25.0671 19.8894Z" fill="black"/>
                <path d="M22.2186 11.4768C23.0648 10.4637 23.4818 9.1616 23.3808 7.84692C22.0879 7.98234 20.8936 8.59854 20.0359 9.57274C19.6165 10.0487 19.2953 10.6023 19.0907 11.2021C18.8861 11.8019 18.802 12.436 18.8432 13.0682C19.4899 13.0749 20.1297 12.9351 20.7143 12.6594C21.299 12.3838 21.8133 11.9794 22.2186 11.4768V11.4768Z" fill="black"/>
                <path d="M42.4205 27.1407H37.6739L36.5339 30.4971H34.5234L39.0194 18.0791H41.1083L45.6043 30.4971H43.5595L42.4205 27.1407ZM38.1655 25.5918H41.928L40.0732 20.1446H40.0212L38.1655 25.5918Z" fill="black"/>
                <path d="M55.314 25.9697C55.314 28.7832 53.8039 30.5908 51.5251 30.5908C50.9478 30.6209 50.3737 30.4883 49.8685 30.2082C49.3633 29.928 48.9474 29.5117 48.6685 29.0068H48.6253V33.4912H46.7617V21.4423H48.5656V22.9482H48.5999C48.8916 22.4457 49.3146 22.0316 49.8236 21.7497C50.3327 21.4679 50.9088 21.3289 51.4908 21.3476C53.7951 21.3476 55.314 23.164 55.314 25.9697ZM53.3985 25.9697C53.3985 24.1367 52.4486 22.9316 50.9992 22.9316C49.5753 22.9316 48.6175 24.1621 48.6175 25.9697C48.6175 27.7939 49.5753 29.0156 50.9992 29.0156C52.4486 29.0156 53.3984 27.8193 53.3984 25.9697H53.3985Z" fill="black"/>
                <path d="M65.3077 25.9697C65.3077 28.7832 63.7971 30.5908 61.5182 30.5908C60.941 30.6209 60.3669 30.4883 59.8617 30.2082C59.3565 29.928 58.9406 29.5117 58.6616 29.0068H58.6185V33.4912H56.7549V21.4423H58.5588V22.9482H58.593C58.8848 22.4457 59.3077 22.0316 59.8168 21.7497C60.3258 21.4679 60.902 21.3289 61.4839 21.3476C63.7883 21.3476 65.3077 23.164 65.3077 25.9697ZM63.3917 25.9697C63.3917 24.1367 62.4417 22.9316 60.9924 22.9316C59.5685 22.9316 58.6107 24.1621 58.6107 25.9697C58.6107 27.7939 59.5685 29.0156 60.9924 29.0156C62.4417 29.0156 63.3917 27.8193 63.3917 25.9697V25.9697Z" fill="black"/>
                <path d="M71.9107 27.0362C72.0487 28.2676 73.2484 29.0762 74.8877 29.0762C76.4586 29.0762 77.5887 28.2676 77.5887 27.1572C77.5887 26.1934 76.9071 25.6162 75.2932 25.2207L73.6793 24.833C71.3926 24.2822 70.3311 23.2158 70.3311 21.4854C70.3311 19.3428 72.2035 17.8711 74.8613 17.8711C77.4937 17.8711 79.2976 19.3428 79.3583 21.4854H77.477C77.3644 20.2461 76.3371 19.4981 74.8358 19.4981C73.3346 19.4981 72.3073 20.2549 72.3073 21.3565C72.3073 22.2344 72.9634 22.751 74.5685 23.1465L75.9405 23.4824C78.4955 24.0849 79.5561 25.1084 79.5561 26.9248C79.5561 29.248 77.7013 30.7031 74.7496 30.7031C71.988 30.7031 70.1234 29.2822 70.0029 27.0361L71.9107 27.0362Z" fill="black"/>
                <path d="M83.5802 19.2998V21.4424H85.3067V22.9141H83.5802V27.9053C83.5802 28.6807 83.9259 29.042 84.6849 29.042C84.8898 29.0384 85.0945 29.0241 85.2979 28.999V30.4619C84.9567 30.5255 84.6099 30.5543 84.2628 30.5478C82.4246 30.5478 81.7078 29.8593 81.7078 28.1035V22.9141H80.3877V21.4424H81.7078V19.2998H83.5802Z" fill="black"/>
                <path d="M86.3057 25.9697C86.3057 23.1211 87.9881 21.3311 90.6117 21.3311C93.244 21.3311 94.9186 23.1211 94.9186 25.9697C94.9186 28.8262 93.2528 30.6084 90.6117 30.6084C87.9714 30.6084 86.3057 28.8262 86.3057 25.9697ZM93.0198 25.9697C93.0198 24.0156 92.1217 22.8623 90.6117 22.8623C89.1016 22.8623 88.2035 24.0244 88.2035 25.9697C88.2035 27.9316 89.1016 29.0762 90.6117 29.0762C92.1217 29.0762 93.0197 27.9316 93.0197 25.9697H93.0198Z" fill="black"/>
                <path d="M96.4551 21.4425H98.2325V22.9835H98.2757C98.3959 22.5022 98.6787 22.0769 99.0764 21.779C99.4741 21.4811 99.9625 21.3288 100.46 21.3478C100.674 21.347 100.888 21.3703 101.098 21.4171V23.1554C100.827 23.0728 100.544 23.0348 100.261 23.0431C99.9899 23.0321 99.72 23.0797 99.4695 23.1826C99.2189 23.2855 98.9937 23.4412 98.8092 23.6391C98.6247 23.837 98.4853 24.0724 98.4007 24.3291C98.316 24.5857 98.288 24.8576 98.3187 25.1261V30.4962H96.4551L96.4551 21.4425Z" fill="black"/>
                <path d="M109.69 27.8369C109.44 29.4805 107.835 30.6084 105.781 30.6084C103.14 30.6084 101.5 28.8437 101.5 26.0127C101.5 23.1729 103.149 21.3311 105.703 21.3311C108.215 21.3311 109.794 23.0518 109.794 25.7969V26.4336H103.382V26.5459C103.352 26.8791 103.394 27.2148 103.504 27.5306C103.615 27.8464 103.792 28.1352 104.023 28.3778C104.254 28.6203 104.534 28.8111 104.844 28.9374C105.155 29.0637 105.489 29.1227 105.824 29.1103C106.265 29.1515 106.706 29.0498 107.084 28.8203C107.462 28.5909 107.755 28.246 107.921 27.8369L109.69 27.8369ZM103.391 25.1348H107.93C107.946 24.8352 107.901 24.5354 107.796 24.2541C107.691 23.9729 107.529 23.7164 107.32 23.5006C107.111 23.2849 106.859 23.1145 106.581 23.0003C106.302 22.8861 106.004 22.8305 105.703 22.8369C105.399 22.8351 105.098 22.8933 104.818 23.008C104.537 23.1227 104.281 23.2918 104.066 23.5054C103.852 23.7191 103.681 23.973 103.565 24.2527C103.449 24.5323 103.39 24.8321 103.391 25.1348V25.1348Z" fill="black"/>
                <path d="M37.9323 8.73065C38.323 8.70269 38.7151 8.76155 39.0802 8.90298C39.4453 9.04441 39.7745 9.26489 40.0438 9.54852C40.3131 9.83214 40.516 10.1718 40.6377 10.5431C40.7595 10.9144 40.7971 11.308 40.7478 11.6955C40.7478 13.6017 39.7147 14.6975 37.9323 14.6975H35.771V8.73065H37.9323ZM36.7003 13.8536H37.8285C38.1077 13.8703 38.3871 13.8246 38.6463 13.72C38.9056 13.6154 39.1382 13.4545 39.3272 13.2489C39.5163 13.0433 39.6569 12.7983 39.739 12.5317C39.8211 12.2651 39.8426 11.9836 39.8018 11.7076C39.8396 11.4328 39.816 11.153 39.7326 10.8884C39.6493 10.6237 39.5083 10.3807 39.3197 10.1768C39.1311 9.97285 38.8996 9.81304 38.6418 9.70881C38.384 9.60457 38.1063 9.55849 37.8285 9.57386H36.7003V13.8536Z" fill="black"/>
                <path d="M41.7972 12.444C41.7688 12.1481 41.8027 11.8496 41.8968 11.5675C41.9909 11.2854 42.1431 11.0261 42.3436 10.8061C42.5441 10.5861 42.7885 10.4103 43.0612 10.2901C43.3338 10.1698 43.6286 10.1077 43.9267 10.1077C44.2248 10.1077 44.5196 10.1698 44.7922 10.2901C45.0648 10.4103 45.3092 10.5861 45.5097 10.8061C45.7102 11.0261 45.8624 11.2854 45.9565 11.5675C46.0506 11.8496 46.0846 12.1481 46.0562 12.444C46.0851 12.7403 46.0516 13.0392 45.9577 13.3218C45.8639 13.6043 45.7118 13.8641 45.5112 14.0845C45.3107 14.3049 45.0661 14.4811 44.7932 14.6016C44.5203 14.7221 44.2251 14.7844 43.9267 14.7844C43.6282 14.7844 43.3331 14.7221 43.0602 14.6016C42.7873 14.4811 42.5427 14.3049 42.3422 14.0845C42.1416 13.8641 41.9895 13.6043 41.8957 13.3218C41.8018 13.0392 41.7683 12.7403 41.7972 12.444V12.444ZM45.1395 12.444C45.1395 11.468 44.6998 10.8972 43.9281 10.8972C43.1535 10.8972 42.7178 11.468 42.7178 12.4441C42.7178 13.4279 43.1535 13.9943 43.9281 13.9943C44.6998 13.9943 45.1396 13.424 45.1396 12.444H45.1395Z" fill="black"/>
                <path d="M51.7181 14.6975H50.7937L49.8604 11.3811H49.7899L48.8605 14.6975H47.9449L46.7002 10.1946H47.6041L48.413 13.6306H48.4796L49.408 10.1946H50.2629L51.1913 13.6306H51.2618L52.0668 10.1946H52.9579L51.7181 14.6975Z" fill="black"/>
                <path d="M54.0049 10.1946H54.8628V10.91H54.9293C55.0423 10.653 55.2329 10.4377 55.4744 10.2939C55.716 10.15 55.9965 10.085 56.2769 10.1077C56.4966 10.0912 56.7172 10.1243 56.9224 10.2044C57.1275 10.2845 57.312 10.4096 57.4621 10.5704C57.6122 10.7313 57.7241 10.9237 57.7895 11.1335C57.8549 11.3434 57.8721 11.5652 57.8398 11.7825V14.6975H56.9487V12.0057C56.9487 11.282 56.6333 10.9222 55.9743 10.9222C55.8251 10.9152 55.6762 10.9406 55.5377 10.9964C55.3993 11.0522 55.2746 11.1372 55.1722 11.2456C55.0698 11.354 54.9921 11.4832 54.9444 11.6243C54.8967 11.7655 54.8802 11.9152 54.896 12.0633V14.6976H54.0049L54.0049 10.1946Z" fill="black"/>
                <path d="M59.2598 8.43677H60.1509V14.6975H59.2598V8.43677Z" fill="black"/>
                <path d="M61.3894 12.4441C61.3611 12.1482 61.395 11.8496 61.4892 11.5675C61.5833 11.2854 61.7355 11.0261 61.936 10.8061C62.1366 10.5861 62.381 10.4104 62.6536 10.2901C62.9262 10.1698 63.2211 10.1077 63.5192 10.1077C63.8173 10.1077 64.1121 10.1698 64.3848 10.2901C64.6574 10.4104 64.9018 10.5861 65.1023 10.8061C65.3029 11.0261 65.4551 11.2854 65.5492 11.5675C65.6433 11.8496 65.6773 12.1482 65.6489 12.4441C65.6778 12.7404 65.6442 13.0393 65.5504 13.3219C65.4565 13.6044 65.3043 13.8642 65.1038 14.0846C64.9032 14.305 64.6586 14.4811 64.3857 14.6017C64.1128 14.7222 63.8177 14.7845 63.5192 14.7845C63.2207 14.7845 62.9255 14.7222 62.6527 14.6017C62.3798 14.4811 62.1352 14.305 61.9346 14.0846C61.734 13.8642 61.5819 13.6044 61.488 13.3219C61.3941 13.0393 61.3606 12.7404 61.3894 12.4441V12.4441ZM64.7318 12.4441C64.7318 11.4681 64.2921 10.8973 63.5204 10.8973C62.7458 10.8973 62.31 11.4681 62.31 12.4441C62.31 13.428 62.7458 13.9944 63.5204 13.9944C64.2921 13.9944 64.7318 13.4241 64.7318 12.4441H64.7318Z" fill="black"/>
                <path d="M66.5869 13.4241C66.5869 12.6135 67.1921 12.1462 68.2664 12.0798L69.4896 12.0095V11.6208C69.4896 11.1453 69.1742 10.8767 68.5651 10.8767C68.0676 10.8767 67.7229 11.0588 67.624 11.3772H66.7612C66.8523 10.6038 67.5819 10.1077 68.6062 10.1077C69.7383 10.1077 70.3768 10.6697 70.3768 11.6208V14.6975H69.519V14.0647H69.4484C69.3053 14.2917 69.1044 14.4767 68.8661 14.6009C68.6278 14.7252 68.3607 14.7841 68.0921 14.7717C67.9025 14.7914 67.7109 14.7712 67.5297 14.7125C67.3484 14.6538 67.1815 14.5579 67.0397 14.4309C66.8979 14.3039 66.7843 14.1487 66.7063 13.9753C66.6283 13.8019 66.5877 13.6141 66.5869 13.4241V13.4241ZM69.4896 13.0393V12.6628L68.3869 12.7331C67.765 12.7746 67.483 12.9856 67.483 13.3826C67.483 13.7878 67.8355 14.0237 68.3203 14.0237C68.4624 14.038 68.6058 14.0237 68.7422 13.9816C68.8786 13.9395 69.0051 13.8705 69.1142 13.7787C69.2233 13.6868 69.3128 13.574 69.3772 13.447C69.4417 13.32 69.4799 13.1813 69.4896 13.0393V13.0393Z" fill="black"/>
                <path d="M71.5483 12.4441C71.5483 11.0213 72.2818 10.1199 73.4227 10.1199C73.7049 10.1069 73.985 10.1743 74.2302 10.3142C74.4754 10.4541 74.6756 10.6607 74.8075 10.9099H74.8741V8.43677H75.7652V14.6975H74.9113V13.9861H74.8408C74.6988 14.2336 74.4916 14.4376 74.2416 14.5761C73.9917 14.7146 73.7085 14.7822 73.4227 14.7717C72.274 14.7718 71.5483 13.8704 71.5483 12.4441ZM72.4689 12.4441C72.4689 13.3992 72.9204 13.9739 73.6754 13.9739C74.4265 13.9739 74.8907 13.3909 74.8907 12.448C74.8907 11.5095 74.4217 10.9182 73.6754 10.9182C72.9252 10.9182 72.4689 11.4968 72.4689 12.4441H72.4689Z" fill="black"/>
                <path d="M79.4525 12.444C79.4241 12.1481 79.458 11.8496 79.5521 11.5675C79.6462 11.2854 79.7984 11.0261 79.9989 10.8061C80.1994 10.5861 80.4438 10.4103 80.7164 10.2901C80.989 10.1698 81.2839 10.1077 81.582 10.1077C81.8801 10.1077 82.1749 10.1698 82.4475 10.2901C82.7201 10.4103 82.9645 10.5861 83.165 10.8061C83.3655 11.0261 83.5177 11.2854 83.6118 11.5675C83.7059 11.8496 83.7399 12.1481 83.7115 12.444C83.7404 12.7403 83.7068 13.0392 83.613 13.3218C83.5191 13.6043 83.367 13.8641 83.1665 14.0845C82.9659 14.3049 82.7214 14.4811 82.4485 14.6016C82.1756 14.7221 81.8804 14.7844 81.582 14.7844C81.2835 14.7844 80.9883 14.7221 80.7154 14.6016C80.4426 14.4811 80.198 14.3049 79.9974 14.0845C79.7969 13.8641 79.6448 13.6043 79.5509 13.3218C79.4571 13.0392 79.4235 12.7403 79.4525 12.444V12.444ZM82.7948 12.444C82.7948 11.468 82.3551 10.8972 81.5834 10.8972C80.8088 10.8972 80.373 11.468 80.373 12.4441C80.373 13.4279 80.8088 13.9943 81.5834 13.9943C82.3551 13.9943 82.7948 13.424 82.7948 12.444Z" fill="black"/>
                <path d="M84.9072 10.1946H85.7651V10.91H85.8317C85.9447 10.653 86.1352 10.4377 86.3768 10.2939C86.6183 10.15 86.8988 10.085 87.1792 10.1077C87.3989 10.0912 87.6195 10.1243 87.8247 10.2044C88.0299 10.2845 88.2144 10.4096 88.3645 10.5704C88.5146 10.7313 88.6265 10.9237 88.6919 11.1335C88.7572 11.3434 88.7744 11.5652 88.7422 11.7825V14.6975H87.851V12.0057C87.851 11.282 87.5357 10.9222 86.8766 10.9222C86.7274 10.9152 86.5785 10.9406 86.4401 10.9964C86.3016 11.0522 86.1769 11.1372 86.0745 11.2456C85.9721 11.354 85.8944 11.4832 85.8467 11.6243C85.7991 11.7655 85.7826 11.9152 85.7984 12.0633V14.6976H84.9072V10.1946Z" fill="black"/>
                <path d="M93.7779 9.07349V10.2151H94.7563V10.9636H93.7779V13.2791C93.7779 13.7507 93.9728 13.9573 94.4165 13.9573C94.53 13.9569 94.6435 13.9501 94.7563 13.9368V14.677C94.5962 14.7055 94.4341 14.7207 94.2715 14.7224C93.2805 14.7224 92.8858 14.3747 92.8858 13.5066V10.9636H92.1689V10.215H92.8858V9.07349H93.7779Z" fill="black"/>
                <path d="M95.9731 8.43677H96.8565V10.9182H96.927C97.0454 10.6589 97.2412 10.4423 97.4876 10.298C97.734 10.1536 98.019 10.0885 98.3038 10.1116C98.5224 10.0997 98.7409 10.1361 98.9438 10.2181C99.1466 10.3002 99.3288 10.4259 99.4773 10.5862C99.6259 10.7465 99.7371 10.9376 99.8031 11.1457C99.869 11.3539 99.8881 11.5739 99.859 11.7903V14.6975H98.9669V12.0095C98.9669 11.2903 98.631 10.926 98.0013 10.926C97.8482 10.9135 97.6941 10.9345 97.5499 10.9875C97.4057 11.0406 97.2749 11.1244 97.1666 11.2332C97.0583 11.3419 96.9752 11.4729 96.9229 11.6171C96.8707 11.7612 96.8507 11.915 96.8643 12.0676V14.6975H95.9732L95.9731 8.43677Z" fill="black"/>
                <path d="M105.055 13.4818C104.934 13.8933 104.672 14.2493 104.314 14.4874C103.957 14.7256 103.526 14.8307 103.099 14.7845C102.801 14.7923 102.506 14.7355 102.232 14.618C101.959 14.5004 101.715 14.325 101.516 14.1039C101.318 13.8827 101.17 13.6212 101.083 13.3374C100.996 13.0535 100.972 12.7543 101.013 12.4603C100.973 12.1654 100.998 11.8655 101.084 11.5808C101.171 11.2961 101.318 11.0334 101.516 10.8103C101.713 10.5872 101.956 10.409 102.229 10.2878C102.501 10.1666 102.797 10.1052 103.095 10.1077C104.351 10.1077 105.109 10.9637 105.109 12.3777V12.6878H101.921V12.7376C101.907 12.9029 101.928 13.0692 101.982 13.226C102.036 13.3827 102.123 13.5264 102.236 13.6479C102.349 13.7693 102.487 13.8658 102.639 13.9312C102.792 13.9966 102.957 14.0295 103.123 14.0276C103.336 14.0532 103.552 14.0149 103.744 13.9177C103.935 13.8205 104.093 13.6687 104.198 13.4817L105.055 13.4818ZM101.921 12.0306H104.201C104.213 11.8795 104.192 11.7277 104.141 11.5849C104.09 11.4422 104.009 11.3117 103.905 11.2019C103.8 11.092 103.674 11.0052 103.533 10.9471C103.393 10.8889 103.242 10.8606 103.09 10.8641C102.936 10.8622 102.783 10.891 102.64 10.949C102.497 11.0069 102.368 11.0928 102.259 11.2015C102.15 11.3102 102.064 11.4396 102.006 11.582C101.948 11.7244 101.919 11.8769 101.921 12.0306H101.921Z" fill="black"/>
                </g>
                <defs>
                <clipPath id="clip0">
                <rect width="120" height="40" fill="white"/>
                </clipPath>
                </defs>
                </svg>